<?xml version="1.0" encoding="utf-8"?>
<!-- Generator: Adobe Illustrator 16.0.2, SVG Export Plug-In . SVG Version: 6.00 Build 0)  -->
<!DOCTYPE svg PUBLIC "-//W3C//DTD SVG 1.1//EN" "http://www.w3.org/Graphics/SVG/1.1/DTD/svg11.dtd">
<svg version="1.1" id="Layer_1" xmlns="http://www.w3.org/2000/svg" xmlns:xlink="http://www.w3.org/1999/xlink" x="0px" y="0px"
	 width="406px" height="306px" viewBox="0 0 406 306" enable-background="new 0 0 406 306" xml:space="preserve">
<g id="_517_information_flow_flatline">
	<path fill="#D1D3D4" d="M254.693,58.91c-0.14,0.005-0.274-0.055-0.365-0.163c0,0-0.497-0.497-1.461-1.34
		c-0.196-0.192-0.199-0.507-0.008-0.703c0.003-0.002,0.006-0.005,0.008-0.007c0.201-0.195,0.52-0.195,0.721,0
		c1.015,0.873,1.502,1.38,1.522,1.401c0.198,0.197,0.2,0.519,0.003,0.718c-0.001,0.001-0.002,0.002-0.003,0.003
		C254.992,58.91,254.84,58.943,254.693,58.91z"/>
	<path fill="#D1D3D4" d="M180.538,265.574c-0.278-0.006-0.502-0.23-0.507-0.508c0-0.281,0.227-0.508,0.507-0.508l4.06-0.051
		c0.262-0.022,0.494,0.172,0.516,0.434c0.002,0.021,0.002,0.043,0.001,0.064c-0.005,0.275-0.222,0.501-0.498,0.518l-4.06,0.051
		H180.538z M176.478,265.574L176.478,265.574c-1.391,0-2.761-0.082-4.06-0.152c-0.28-0.018-0.494-0.258-0.477-0.539
		c0.017-0.279,0.258-0.493,0.538-0.477c1.309,0.082,2.669,0.133,4.06,0.152c0.275,0.016,0.492,0.242,0.497,0.518
		c-0.021,0.279-0.264,0.489-0.544,0.469c-0.005-0.001-0.009-0.001-0.014-0.002V265.574z M188.658,265.451
		c-0.274-0.004-0.497-0.223-0.508-0.496c-0.006-0.277,0.211-0.508,0.487-0.518l4.06-0.163c0.28-0.011,0.516,0.206,0.528,0.486
		c0,0.001,0,0.001,0,0.001c0.011,0.279-0.207,0.516-0.486,0.527c0,0,0,0-0.001,0l-4.06,0.162H188.658z M168.358,265.107
		L168.358,265.107c-1.391-0.133-2.761-0.305-4.06-0.508c-0.274-0.047-0.463-0.303-0.426-0.579c0.042-0.276,0.3-0.468,0.578-0.427
		c0,0,0,0,0.001,0c1.289,0.193,2.629,0.366,4.06,0.508c0.28,0.014,0.496,0.253,0.482,0.533c-0.014,0.28-0.252,0.496-0.533,0.482
		L168.358,265.107z M196.778,265.107c-0.267-0.005-0.486-0.211-0.507-0.478c-0.017-0.28,0.195-0.521,0.475-0.538
		c0.001,0,0.001,0,0.002,0c1.354-0.081,2.707-0.172,4.06-0.273c0.275-0.013,0.511,0.192,0.538,0.467
		c0.023,0.279-0.185,0.523-0.464,0.547c-0.001,0-0.002,0-0.003,0c-1.35,0.102-2.7,0.193-4.06,0.275H196.778z M204.898,264.498
		c-0.281,0-0.508-0.228-0.508-0.508s0.227-0.508,0.508-0.508c1.34-0.121,2.689-0.254,4.06-0.396c0.28-0.028,0.53,0.177,0.558,0.456
		c0.029,0.281-0.176,0.531-0.456,0.559c-1.34,0.143-2.69,0.274-4.06,0.396H204.898z M160.339,263.889h-0.101
		c-1.371-0.295-2.71-0.64-3.979-1.016c-0.265-0.082-0.414-0.362-0.335-0.629c0.071-0.265,0.344-0.422,0.609-0.351
		c0.007,0.002,0.013,0.004,0.02,0.006c1.238,0.365,2.547,0.7,3.897,1.015c0.28,0.031,0.482,0.283,0.452,0.563
		s-0.283,0.482-0.563,0.452V263.889z M212.978,263.635c-0.28,0.018-0.521-0.196-0.538-0.477c-0.017-0.281,0.197-0.521,0.477-0.538
		c1.351-0.173,2.69-0.345,4.061-0.538c0.275-0.03,0.526,0.162,0.568,0.437c0.041,0.271-0.145,0.525-0.416,0.567
		c-0.004,0-0.007,0-0.01,0.001c-1.34,0.192-2.69,0.365-4.061,0.538L212.978,263.635z M221.037,262.498
		c-0.281,0.022-0.526-0.187-0.549-0.467s0.188-0.525,0.467-0.548c1.34-0.214,2.68-0.437,4-0.681c0.279-0.05,0.548,0.137,0.598,0.416
		c0.051,0.281-0.135,0.549-0.416,0.6c-1.329,0.233-2.669,0.467-4.06,0.68H221.037z M152.564,261.574
		c-0.06,0.015-0.123,0.015-0.183,0c-1.275-0.502-2.522-1.074-3.735-1.715c-0.249-0.129-0.346-0.436-0.216-0.685
		c0.001-0.002,0.002-0.004,0.003-0.006c0.134-0.246,0.442-0.338,0.688-0.204c0.001,0,0.001,0.001,0.002,0.001
		c1.178,0.626,2.391,1.181,3.633,1.665c0.257,0.107,0.382,0.398,0.284,0.66c-0.106,0.155-0.289,0.24-0.477,0.223V261.574z
		 M229.045,261.057c-0.242,0.004-0.453-0.167-0.498-0.406c-0.056-0.273,0.121-0.542,0.396-0.598l0,0
		c1.33-0.265,2.659-0.549,3.969-0.844c0.273-0.057,0.543,0.114,0.609,0.387c0.063,0.273-0.108,0.545-0.382,0.607
		c-0.001,0-0.003,0.001-0.005,0.001c-1.318,0.294-2.648,0.579-3.988,0.843L229.045,261.057z M236.982,259.281
		c-0.235,0.002-0.441-0.158-0.498-0.387c-0.063-0.271,0.104-0.543,0.376-0.608c1.319-0.335,2.629-0.67,3.918-1.015
		c0.28-0.076,0.569,0.09,0.645,0.37s-0.091,0.569-0.37,0.645l0,0c-1.3,0.354-2.619,0.7-3.949,1.015L236.982,259.281z
		 M145.439,257.728c-0.108,0-0.214-0.032-0.305-0.091c-1.119-0.814-2.168-1.721-3.136-2.711c-0.196-0.191-0.199-0.507-0.007-0.703
		c0.002-0.002,0.005-0.004,0.007-0.007c0.197-0.199,0.519-0.2,0.718-0.003c0.001,0.001,0.002,0.002,0.003,0.003
		c0.942,0.945,1.96,1.812,3.045,2.589c0.227,0.164,0.277,0.481,0.113,0.708c0,0.001,0,0.001-0.001,0.002
		c-0.114,0.116-0.275,0.173-0.437,0.152V257.728z M244.828,257.119c-0.225,0.008-0.426-0.139-0.487-0.355
		c-0.079-0.266,0.07-0.547,0.335-0.629c1.299-0.396,2.588-0.813,3.857-1.238c0.266-0.089,0.554,0.051,0.649,0.314
		c0.081,0.268-0.062,0.553-0.325,0.649c-1.279,0.426-2.568,0.843-3.887,1.238c-0.051-0.004-0.099-0.018-0.143-0.041V257.119z
		 M252.532,254.5c-0.21-0.002-0.399-0.13-0.478-0.324c-0.096-0.262,0.035-0.551,0.295-0.65c1.269-0.477,2.537-1.015,3.775-1.481
		c0.268-0.082,0.552,0.069,0.633,0.337c0.071,0.232-0.032,0.482-0.247,0.597c-1.249,0.518-2.527,1.015-3.806,1.492
		C252.649,254.49,252.591,254.5,252.532,254.5z M139.867,251.901c-0.167,0.001-0.324-0.083-0.417-0.224
		c-0.765-1.164-1.405-2.405-1.908-3.704c-0.101-0.264,0.031-0.56,0.294-0.659c0.264-0.102,0.559,0.03,0.66,0.294
		c0.474,1.229,1.076,2.407,1.797,3.512c0.153,0.233,0.089,0.546-0.142,0.7c-0.104,0.053-0.222,0.067-0.335,0.041L139.867,251.901z
		 M260.094,251.395c-0.28,0.059-0.555-0.121-0.614-0.401c-0.059-0.28,0.12-0.556,0.401-0.614c1.238-0.568,2.456-1.156,3.644-1.766
		c0.243-0.129,0.544-0.035,0.672,0.207c0.003,0.006,0.006,0.011,0.009,0.016c0.127,0.247,0.031,0.551-0.214,0.681
		c-1.198,0.608-2.437,1.208-3.685,1.776c-0.078,0.049-0.172,0.07-0.264,0.061L260.094,251.395z M267.33,247.689
		c-0.279-0.008-0.5-0.242-0.492-0.522c0.006-0.174,0.1-0.333,0.249-0.421c1.178-0.681,2.345-1.381,3.451-2.102
		c0.229-0.15,0.538-0.086,0.688,0.144c0.004,0.006,0.008,0.013,0.012,0.019c0.151,0.235,0.083,0.549-0.152,0.701
		c-1.127,0.72-2.304,1.431-3.502,2.11c-0.095,0.045-0.202,0.056-0.305,0.03L267.33,247.689z M136.903,244.35
		c-0.25,0.003-0.462-0.18-0.498-0.426c-0.146-0.917-0.23-1.843-0.253-2.771v-0.232c-0.002-0.397,0.021-0.795,0.071-1.188
		c0.034-0.281,0.288-0.48,0.568-0.447s0.48,0.288,0.447,0.568c-0.039,0.337-0.059,0.676-0.061,1.016v0.202
		c0.02,0.885,0.101,1.767,0.244,2.64c0.042,0.279-0.147,0.541-0.426,0.588L136.903,244.35z M274.121,243.273
		c-0.164-0.002-0.318-0.08-0.416-0.213c-0.16-0.229-0.111-0.542,0.111-0.71c1.096-0.792,2.172-1.624,3.188-2.467
		c0.217-0.179,0.537-0.151,0.721,0.062c0.17,0.221,0.139,0.537-0.071,0.721c-1.015,0.852-2.122,1.694-3.237,2.507
		c-0.089,0.055-0.191,0.083-0.295,0.081V243.273z M280.363,238.077c-0.28-0.004-0.504-0.233-0.5-0.515
		c0.002-0.135,0.058-0.264,0.154-0.357c1.016-0.945,1.919-1.908,2.792-2.894c0.197-0.198,0.519-0.2,0.718-0.003
		c0.001,0.001,0.002,0.002,0.003,0.003c0.194,0.201,0.194,0.521,0,0.721c-0.894,1.015-1.857,2.03-2.853,2.943
		c-0.094,0.06-0.203,0.088-0.314,0.081V238.077z M138.091,236.514c-0.286-0.01-0.509-0.25-0.499-0.535
		c0.003-0.087,0.028-0.172,0.072-0.246c0.757-1.191,1.703-2.25,2.801-3.137c0.198-0.197,0.519-0.198,0.718,0
		c0.198,0.197,0.199,0.519,0.001,0.717c-0.024,0.025-0.051,0.047-0.079,0.065c-1.008,0.82-1.879,1.797-2.578,2.893
		c-0.1,0.142-0.263,0.226-0.437,0.224V236.514z M285.764,232.018c-0.11,0.001-0.218-0.035-0.305-0.102
		c-0.22-0.171-0.264-0.484-0.102-0.711c0.771-1.014,1.543-2.141,2.283-3.318c0.152-0.235,0.465-0.303,0.701-0.152
		c0.236,0.141,0.313,0.445,0.174,0.682c-0.004,0.006-0.008,0.013-0.012,0.019c-0.762,1.198-1.543,2.335-2.335,3.38
		c-0.098,0.123-0.249,0.191-0.405,0.184V232.018z M144.181,231.267c-0.19,0.006-0.366-0.102-0.446-0.274
		c-0.131-0.241-0.041-0.543,0.201-0.674c0.004-0.002,0.008-0.004,0.012-0.006c1.224-0.633,2.493-1.176,3.796-1.624
		c0.264-0.095,0.555,0.041,0.65,0.305c0.093,0.265-0.045,0.554-0.309,0.647c-0.002,0.001-0.004,0.002-0.006,0.002
		c-1.259,0.432-2.484,0.957-3.664,1.573c-0.075,0.025-0.154,0.036-0.233,0.03V231.267z M180.041,229.358h-0.122
		c-1.299-0.314-2.629-0.589-3.948-0.832c-0.28-0.051-0.467-0.319-0.417-0.599c0.051-0.281,0.319-0.467,0.599-0.416
		c1.34,0.243,2.68,0.527,4.009,0.842c0.271,0.065,0.439,0.338,0.375,0.609c-0.063,0.222-0.267,0.375-0.498,0.375V229.358z
		 M151.824,228.557c-0.28,0.031-0.533-0.172-0.563-0.451c-0.031-0.281,0.171-0.533,0.452-0.564c1.299-0.294,2.659-0.537,4.06-0.73
		c0.28-0.036,0.537,0.162,0.574,0.441c0.036,0.281-0.162,0.537-0.442,0.574c-1.36,0.182-2.689,0.416-3.958,0.71L151.824,228.557z
		 M172.053,227.887h-0.071c-1.34-0.172-2.689-0.305-4.06-0.396c-0.276-0.021-0.484-0.261-0.467-0.537
		c0.027-0.275,0.261-0.484,0.538-0.477c1.35,0.091,2.72,0.232,4.06,0.405c0.28,0.017,0.494,0.258,0.477,0.538
		c-0.017,0.28-0.258,0.494-0.538,0.477L172.053,227.887z M159.873,227.439c-0.269,0.001-0.491-0.208-0.507-0.477
		c-0.007-0.276,0.202-0.512,0.477-0.537c1.188-0.072,2.405-0.102,3.634-0.102h0.467c0.28,0,0.507,0.227,0.507,0.507
		s-0.227,0.508-0.507,0.508h-0.467c-1.208,0-2.406,0-3.573,0.101H159.873z M290.138,225.166c-0.085,0-0.169-0.021-0.243-0.061
		c-0.243-0.138-0.333-0.443-0.203-0.689c0.629-1.147,1.248-2.365,1.848-3.604c0.122-0.247,0.42-0.352,0.67-0.234
		c0.254,0.119,0.363,0.42,0.246,0.675c-0.002,0.002-0.002,0.004-0.003,0.006c-0.599,1.249-1.229,2.477-1.868,3.644
		c-0.096,0.154-0.266,0.246-0.446,0.244V225.166z M293.649,217.828c-0.063,0.014-0.129,0.014-0.192,0
		c-0.256-0.102-0.381-0.39-0.28-0.646c0.002-0.005,0.004-0.009,0.006-0.015c0.518-1.238,1.015-2.507,1.462-3.766
		c0.096-0.264,0.386-0.399,0.649-0.305c0.261,0.089,0.399,0.371,0.312,0.631c-0.002,0.007-0.004,0.014-0.007,0.02
		c-0.457,1.269-0.954,2.558-1.481,3.807c-0.092,0.169-0.275,0.269-0.468,0.253V217.828z M296.41,210.175
		c-0.05,0.01-0.102,0.01-0.152,0c-0.265-0.083-0.414-0.363-0.334-0.629c0.396-1.3,0.761-2.608,1.086-3.897
		c0.068-0.271,0.346-0.436,0.617-0.366c0,0,0.001,0.001,0.002,0.001c0.267,0.063,0.432,0.332,0.367,0.6
		c-0.001,0.002-0.001,0.006-0.002,0.009c-0.325,1.31-0.701,2.64-1.097,3.948c-0.081,0.21-0.294,0.34-0.518,0.314L296.41,210.175z
		 M298.44,202.289h-0.102c-0.274-0.052-0.455-0.314-0.406-0.59c0.265-1.34,0.487-2.68,0.67-3.988
		c0.037-0.277,0.291-0.473,0.568-0.437c0.279,0.042,0.473,0.299,0.437,0.579c-0.183,1.318-0.405,2.679-0.67,4.06
		c-0.07,0.228-0.29,0.375-0.527,0.354L298.44,202.289z M299.526,194.239L299.526,194.239c-0.279-0.021-0.488-0.265-0.467-0.545
		c0-0.001,0-0.002,0-0.003c0.092-1.319,0.143-2.629,0.143-3.897v-0.132c0.005-0.278,0.229-0.502,0.507-0.508
		c0.28,0,0.508,0.227,0.508,0.508v0.121c0,1.3-0.051,2.64-0.152,3.979c-0.019,0.275-0.256,0.482-0.53,0.463
		c-0.016-0.001-0.032-0.003-0.048-0.006L299.526,194.239z M299.526,186.119c-0.264,0.007-0.486-0.193-0.508-0.457
		c-0.107-1.334-0.287-2.662-0.537-3.979c-0.05-0.276,0.13-0.543,0.405-0.599c0.274-0.05,0.538,0.132,0.589,0.406
		c0.256,1.343,0.442,2.698,0.559,4.06c0.023,0.279-0.185,0.525-0.464,0.548c-0.001,0.001-0.002,0.001-0.003,0.001L299.526,186.119z
		 M298.004,178.152c-0.225-0.004-0.421-0.151-0.487-0.366c-0.394-1.272-0.872-2.517-1.431-3.725
		c-0.147-0.239-0.074-0.552,0.164-0.698c0.238-0.148,0.552-0.074,0.699,0.164c0.021,0.034,0.037,0.07,0.05,0.107
		c0.585,1.25,1.084,2.539,1.492,3.857c0.079,0.266-0.07,0.547-0.335,0.629c-0.076,0.023-0.157,0.023-0.233,0L298.004,178.152z
		 M294.553,170.823c-0.17-0.001-0.328-0.085-0.426-0.224c-0.738-1.102-1.566-2.141-2.477-3.105
		c-0.199-0.197-0.201-0.519-0.004-0.718c0.002-0.001,0.002-0.002,0.004-0.003c0.191-0.196,0.507-0.199,0.703-0.007
		c0.002,0.002,0.005,0.005,0.007,0.007c0.954,1.004,1.819,2.087,2.589,3.238c0.158,0.225,0.104,0.535-0.121,0.692
		c-0.004,0.003-0.008,0.005-0.012,0.008c-0.102,0.066-0.224,0.096-0.345,0.081L294.553,170.823z M150.149,167.605h-1.959
		c-0.28-0.005-0.503-0.236-0.497-0.518l0,0c0-0.274,0.222-0.497,0.497-0.497c0.003,0,0.007,0,0.01,0l0,0c1.34,0,2.7,0,4.06,0l0,0
		c0.28,0,0.507,0.228,0.507,0.508c0.006,0.274-0.212,0.501-0.487,0.507c-0.003,0-0.007,0-0.01,0H150.149z M156.371,167.535
		c-0.276,0-0.502-0.221-0.508-0.498c0.005-0.275,0.222-0.502,0.498-0.518c1.35,0,2.7-0.061,4.06-0.111
		c0.28,0,0.512,0.218,0.528,0.497c0.005,0.276-0.211,0.507-0.487,0.519c-1.37,0-2.73,0.091-4.06,0.111H156.371z M144.191,167.535
		L144.191,167.535c-1.38,0-2.73-0.082-4.06-0.133c-0.28-0.016-0.493-0.256-0.477-0.535c0-0.001,0-0.002,0-0.002
		c0.011-0.275,0.242-0.488,0.516-0.479c0.004,0,0.008,0.001,0.012,0.001c1.33,0.051,2.69,0.102,4.06,0.132
		c0.28,0.006,0.503,0.237,0.498,0.518c0,0.004,0,0.007,0,0.011c-0.022,0.279-0.267,0.487-0.546,0.466
		c-0.021-0.002-0.042-0.005-0.063-0.01L144.191,167.535z M164.491,167.271c-0.269-0.006-0.486-0.219-0.497-0.488
		c-0.052-0.27,0.125-0.529,0.394-0.582c0.014-0.002,0.028-0.005,0.042-0.006l4.06-0.203c0.273-0.023,0.514,0.181,0.536,0.455
		c0.001,0.007,0.001,0.014,0.001,0.021c0.012,0.279-0.199,0.517-0.477,0.538l-4.06,0.203V167.271z M136.071,167.18L136.071,167.18
		c-1.38-0.092-2.73-0.193-4.06-0.314c-0.279-0.027-0.483-0.274-0.457-0.554c0-0.001,0-0.003,0-0.005
		c0.037-0.271,0.274-0.47,0.548-0.457c1.33,0.122,2.68,0.234,4.06,0.325c0.274,0.016,0.484,0.251,0.468,0.525
		c0,0.004,0,0.009,0,0.013c-0.039,0.283-0.3,0.481-0.583,0.442c-0.012-0.001-0.024-0.004-0.036-0.007L136.071,167.18z
		 M172.55,166.805c-0.267-0.005-0.486-0.212-0.507-0.478c-0.017-0.28,0.195-0.521,0.475-0.538c0.001,0,0.001,0,0.002,0l4.06-0.273
		c0.274-0.023,0.514,0.18,0.537,0.454c0,0.007,0.001,0.015,0.001,0.022c0.017,0.276-0.19,0.516-0.467,0.537l-4.06,0.275H172.55z
		 M127.89,166.398h-0.061c-1.37-0.163,10.641-0.111,9.311-0.314c-0.28-0.042-0.473-0.303-0.431-0.584
		c0.042-0.28,0.303-0.473,0.583-0.432c1.309,0.203-10.722,0.152-9.311,0.314c0.278,0.031,0.479,0.283,0.447,0.562
		c0,0.003,0,0.005-0.001,0.007C128.392,166.217,128.158,166.411,127.89,166.398z M180.67,166.235c-0.28,0-0.507-0.228-0.507-0.507
		c0-0.281,0.227-0.508,0.507-0.508l4.06-0.324c0.277-0.024,0.521,0.18,0.548,0.456c0.029,0.272-0.169,0.519-0.443,0.547
		c-0.004,0.001-0.009,0.001-0.014,0.001l-4.06,0.325L180.67,166.235z M188.79,165.556c-0.265,0.001-0.486-0.202-0.507-0.467
		c-0.018-0.275,0.183-0.517,0.457-0.548l4.06-0.365c0.273-0.029,0.518,0.168,0.547,0.441c0,0.006,0.001,0.01,0.001,0.015
		c0.029,0.273-0.169,0.519-0.442,0.547c-0.004,0.001-0.009,0.001-0.014,0.001l-4.06,0.376H188.79z M133.202,165.424h-0.061
		c-1.36-0.273-2.7-0.578-3.989-0.893c-0.273-0.07-0.44-0.346-0.376-0.619c0.07-0.271,0.346-0.436,0.618-0.366
		c0,0,0.001,0.001,0.001,0.001c1.269,0.314,2.599,0.608,3.949,0.883c0.27,0.051,0.448,0.311,0.397,0.58
		c0,0.003-0.001,0.006-0.002,0.008C133.686,165.268,133.457,165.439,133.202,165.424z M288.91,164.977
		c-0.111-0.001-0.219-0.04-0.305-0.111c-1.064-0.793-2.188-1.502-3.359-2.121c-0.25-0.129-0.346-0.436-0.217-0.685
		c0.001-0.002,0.002-0.004,0.003-0.006c0.134-0.246,0.44-0.341,0.69-0.213c1.219,0.649,2.387,1.394,3.492,2.223
		c0.224,0.168,0.27,0.486,0.101,0.71C289.22,164.902,289.069,164.977,288.91,164.977L288.91,164.977z M196.91,164.795
		c-0.262,0-0.481-0.197-0.508-0.457c-0.019-0.277,0.182-0.521,0.457-0.559c1.36-0.122,2.71-0.264,4.06-0.396
		c0.28-0.027,0.53,0.178,0.558,0.457c0.028,0.281-0.177,0.531-0.457,0.559l-4.06,0.406L196.91,164.795z M205.029,163.982
		c-0.259,0.001-0.476-0.198-0.496-0.457c-0.03-0.277,0.169-0.526,0.446-0.559l4.06-0.416c0.266-0.039,0.514,0.144,0.555,0.41
		c0.002,0.012,0.003,0.024,0.004,0.037c0.029,0.278-0.174,0.528-0.451,0.558c-0.002,0-0.004,0-0.006,0.001l-4.061,0.426H205.029z
		 M125.315,163.395c-0.05,0.01-0.102,0.01-0.152,0c-1.35-0.427-2.659-0.883-3.867-1.36c-0.253-0.12-0.361-0.423-0.24-0.677
		c0.108-0.227,0.365-0.34,0.606-0.268c1.198,0.467,2.477,0.924,3.806,1.34c0.28,0.043,0.473,0.304,0.431,0.584
		s-0.303,0.473-0.583,0.432V163.395z M213.068,163.15c-0.279,0-0.507-0.228-0.507-0.508s0.228-0.508,0.507-0.508l4.061-0.436
		c0.28-0.031,0.532,0.171,0.563,0.451c0.031,0.28-0.171,0.532-0.451,0.563l-4.06,0.438H213.068z M221.25,162.277l-0.092-0.508
		v-0.508l3.999-0.426c0.28-0.031,0.532,0.172,0.563,0.451c0.031,0.281-0.172,0.533-0.451,0.563L221.25,162.277z M221.158,161.77
		L221.158,161.77z M229.278,161.424c-0.26,0.002-0.476-0.197-0.497-0.456c-0.029-0.277,0.17-0.526,0.446-0.558l4.06-0.417
		c0.281-0.028,0.531,0.177,0.559,0.457c0.028,0.28-0.176,0.53-0.457,0.558l-4.06,0.416H229.278z M281.764,161.12h-0.172
		c-1.256-0.454-2.537-0.834-3.837-1.137c-0.271-0.065-0.439-0.337-0.376-0.609c0.059-0.269,0.324-0.438,0.592-0.38
		c0.006,0.002,0.012,0.003,0.018,0.004c1.339,0.308,2.658,0.697,3.948,1.168c0.28,0.047,0.469,0.313,0.421,0.594
		c-0.047,0.28-0.313,0.469-0.594,0.421V161.12z M237.348,160.592c-0.28,0.015-0.52-0.201-0.533-0.482
		c-0.014-0.279,0.202-0.518,0.482-0.532l4.061-0.386c0.276-0.012,0.516,0.191,0.547,0.467c0.019,0.275-0.182,0.517-0.456,0.549
		l-4.06,0.385H237.348z M117.754,160.4c-0.073,0.019-0.15,0.019-0.224,0c-1.23-0.611-2.427-1.289-3.583-2.03
		c-0.236-0.155-0.304-0.472-0.152-0.711c0.148-0.231,0.456-0.299,0.687-0.151c0.005,0.004,0.009,0.006,0.014,0.01
		c1.125,0.717,2.287,1.374,3.481,1.969c0.252,0.122,0.358,0.426,0.235,0.678c-0.085,0.176-0.263,0.287-0.458,0.287V160.4z
		 M245.468,159.852c-0.28,0-0.508-0.228-0.508-0.508s0.228-0.508,0.508-0.508l4.06-0.324c0.281-0.022,0.525,0.187,0.549,0.467
		c0.021,0.28-0.188,0.525-0.467,0.548c-1.33,0.102-2.68,0.203-4.061,0.325H245.468z M273.888,159.242h-0.071
		c-1.279-0.172-2.629-0.295-3.999-0.365c-0.28-0.012-0.498-0.247-0.487-0.527l0,0c0.004-0.27,0.226-0.484,0.494-0.48
		c0.016,0,0.029,0.002,0.044,0.003c1.401,0.061,2.771,0.183,4.06,0.354c0.279,0.043,0.473,0.3,0.438,0.579
		c-0.043,0.239-0.246,0.416-0.488,0.427L273.888,159.242z M253.588,159.242c-0.281,0-0.508-0.227-0.508-0.508
		c0-0.279,0.227-0.508,0.508-0.508c1.391-0.091,2.75-0.162,4.06-0.223c0.269-0.022,0.504,0.177,0.526,0.445
		c0.001,0.01,0.002,0.021,0.002,0.031c0.017,0.274-0.191,0.511-0.466,0.527c-0.004,0-0.008,0.001-0.012,0.001
		c-1.319,0.071-2.669,0.142-4.06,0.233H253.588z M261.707,158.856c-0.271,0.001-0.496-0.215-0.507-0.487
		c-0.011-0.279,0.206-0.516,0.487-0.527c0.003,0,0.006,0,0.01,0c1.4,0,2.771,0,4.061,0l0,0c0.279,0,0.508,0.227,0.508,0.508
		c-0.006,0.277-0.23,0.502-0.508,0.507c-1.3,0-2.66,0-4.061,0H261.707z M110.974,155.965c-0.123-0.001-0.241-0.044-0.335-0.122
		c-1.035-0.899-1.995-1.88-2.873-2.934c-0.179-0.191-0.179-0.489,0-0.68c0.217-0.179,0.537-0.151,0.721,0.061
		c0.858,1.009,1.795,1.949,2.801,2.812c0.212,0.184,0.24,0.504,0.061,0.721C111.248,155.917,111.112,155.969,110.974,155.965z
		 M105.736,149.773c-0.181-0.001-0.347-0.098-0.437-0.254c-0.375-0.649-0.721-1.33-1.015-2.03c-0.294-0.701-0.498-1.137-0.731-1.715
		c-0.099-0.258,0.021-0.548,0.274-0.66c0.26-0.101,0.554,0.02,0.669,0.274c0.224,0.568,0.467,1.126,0.711,1.685
		c0.243,0.559,0.629,1.31,1.015,1.929c0.142,0.235,0.066,0.541-0.169,0.683c-0.004,0.002-0.009,0.005-0.013,0.007
		C105.951,149.752,105.844,149.781,105.736,149.773z M102.691,142.282c-0.217,0.001-0.41-0.138-0.477-0.345
		c-0.416-1.279-0.802-2.608-1.147-3.938c-0.07-0.28,0.101-0.564,0.381-0.635c0.28-0.07,0.564,0.101,0.634,0.381
		c0.335,1.319,0.71,2.619,1.127,3.877c0.081,0.266-0.063,0.548-0.325,0.639L102.691,142.282z M100.661,134.406
		c-0.243,0.004-0.453-0.167-0.498-0.406c-0.253-1.32-0.467-2.68-0.649-4.06c-0.037-0.28,0.161-0.537,0.441-0.574
		c0.28-0.036,0.537,0.161,0.574,0.441c0.172,1.35,0.386,2.69,0.629,3.989c0.05,0.276-0.13,0.542-0.406,0.599L100.661,134.406z
		 M99.646,126.347c-0.265,0.001-0.486-0.203-0.507-0.467c-0.102-1.34-0.163-2.72-0.193-4.06c-0.006-0.28,0.217-0.512,0.497-0.518
		l0,0c0.271,0.018,0.489,0.228,0.518,0.497c0,1.35,0.091,2.71,0.193,4.06c0.022,0.279-0.185,0.524-0.465,0.547
		c-0.004,0-0.008,0-0.012,0.001L99.646,126.347z M100.052,110.106h-0.061c-0.278-0.031-0.479-0.282-0.447-0.561
		c0-0.002,0-0.005,0-0.007c0.163-1.33,0.345-2.689,0.568-4.06c0.042-0.281,0.304-0.474,0.584-0.432s0.473,0.303,0.431,0.583l0,0
		c-0.213,1.34-0.396,2.69-0.558,4.06c-0.041,0.271-0.294,0.459-0.565,0.418c-0.004-0.001-0.009-0.001-0.013-0.002H100.052z
		 M101.341,102.078h-0.102c-0.271-0.049-0.449-0.309-0.4-0.579c0.001-0.007,0.002-0.014,0.004-0.021
		c0.274-1.33,0.568-2.669,0.893-3.989c0.067-0.28,0.349-0.453,0.629-0.386s0.453,0.349,0.386,0.629
		c-0.325,1.309-0.629,2.639-0.893,3.948c-0.056,0.265-0.311,0.44-0.579,0.396H101.341z M103.29,94.181
		c-0.047,0.01-0.095,0.01-0.142,0c-0.265-0.071-0.422-0.344-0.351-0.609c0.002-0.007,0.004-0.013,0.006-0.02
		c0.375-1.309,0.792-2.628,1.218-3.897c0.09-0.28,0.39-0.435,0.67-0.345c0.28,0.09,0.435,0.39,0.345,0.67
		c-0.426,1.259-0.832,2.558-1.208,3.857c-0.074,0.258-0.339,0.411-0.599,0.345H103.29z M105.878,86.478
		c-0.06,0.014-0.123,0.014-0.183,0c-0.259-0.1-0.39-0.389-0.294-0.65c0.487-1.289,1.015-2.558,1.542-3.786
		c0.104-0.254,0.394-0.377,0.648-0.273c0.007,0.003,0.015,0.006,0.022,0.009c0.257,0.111,0.376,0.41,0.265,0.667
		c0,0.001-0.001,0.002-0.001,0.003c-0.528,1.208-1.015,2.477-1.533,3.735c-0.089,0.206-0.306,0.327-0.528,0.294H105.878z
		 M109.116,79.017c-0.077-0.002-0.153-0.02-0.224-0.051c-0.248-0.126-0.351-0.427-0.233-0.68c0.609-1.248,1.249-2.466,1.898-3.633
		c0.142-0.239,0.446-0.324,0.69-0.193c0.247,0.133,0.338,0.441,0.204,0.688c0,0,0,0.001-0.001,0.002
		c-0.64,1.147-1.279,2.355-1.878,3.583c-0.096,0.194-0.303,0.307-0.518,0.284H109.116z M113.084,71.912
		c-0.097-0.003-0.191-0.031-0.274-0.081c-0.235-0.152-0.303-0.465-0.152-0.7c0.751-1.188,1.533-2.325,2.314-3.39
		c0.168-0.225,0.486-0.27,0.71-0.102c0.223,0.168,0.272,0.482,0.112,0.71c-0.771,1.015-1.543,2.162-2.284,3.319
		c-0.099,0.173-0.29,0.272-0.487,0.254L113.084,71.912z M117.916,65.396c-0.125,0.002-0.245-0.045-0.335-0.132
		c-0.196-0.192-0.199-0.507-0.007-0.703c0.002-0.002,0.005-0.005,0.007-0.007c0.883-1.015,1.817-2.03,2.781-3.045
		c0.197-0.193,0.513-0.193,0.71,0c0.199,0.198,0.2,0.519,0.003,0.718c-0.001,0.001-0.002,0.002-0.003,0.003
		c-0.944,1.015-1.868,1.969-2.741,2.974C118.232,65.33,118.078,65.401,117.916,65.396z M123.58,59.56
		c-0.143,0.002-0.279-0.057-0.375-0.162c-0.199-0.198-0.2-0.519-0.003-0.718c0.001-0.001,0.002-0.002,0.003-0.003
		c1.015-0.914,2.03-1.827,3.045-2.71c0.206-0.183,0.52-0.165,0.702,0.041c0.003,0.003,0.006,0.006,0.009,0.009
		c0.179,0.217,0.151,0.537-0.061,0.721c-1.015,0.873-2.03,1.776-3.045,2.69c-0.087,0.079-0.198,0.125-0.315,0.132H123.58z
		 M250.065,55.002c-0.108-0.005-0.214-0.04-0.304-0.102c-1.016-0.782-2.152-1.563-3.31-2.324c-0.231-0.155-0.295-0.468-0.142-0.701
		c0.158-0.233,0.475-0.296,0.71-0.142c1.157,0.771,2.284,1.563,3.35,2.345c0.224,0.168,0.27,0.486,0.102,0.71l0,0
		c-0.099,0.147-0.271,0.229-0.446,0.213H250.065z M129.771,54.292c-0.28-0.007-0.502-0.24-0.495-0.521
		c0.004-0.149,0.073-0.29,0.19-0.383c1.015-0.833,2.172-1.645,3.289-2.436c0.231-0.158,0.545-0.104,0.71,0.122
		c0.153,0.232,0.1,0.542-0.122,0.71c-1.106,0.782-2.203,1.583-3.258,2.406c-0.102,0.077-0.229,0.113-0.355,0.102H129.771z
		 M243.275,50.505c-0.09,0-0.178-0.024-0.254-0.071c-1.137-0.67-2.324-1.34-3.521-2.03c-0.25-0.129-0.346-0.436-0.217-0.685
		c0.001-0.002,0.002-0.004,0.003-0.006c0.134-0.246,0.44-0.341,0.69-0.213c1.218,0.66,2.416,1.33,3.563,2.03
		c0.24,0.144,0.318,0.456,0.176,0.696c-0.002,0.001-0.002,0.003-0.004,0.004c-0.096,0.164-0.275,0.261-0.467,0.253L243.275,50.505z
		 M236.078,46.658c-0.069,0.019-0.143,0.019-0.213,0c-1.207-0.578-2.436-1.146-3.674-1.695c-0.258-0.111-0.376-0.41-0.266-0.667
		c0.001-0.001,0.002-0.002,0.002-0.003c0.111-0.257,0.409-0.376,0.666-0.265c0.002,0,0.002,0.001,0.004,0.001
		c1.248,0.548,2.496,1.126,3.705,1.715c0.24,0.132,0.327,0.435,0.195,0.676c-0.002,0.001-0.002,0.003-0.003,0.004
		C236.406,46.57,236.249,46.659,236.078,46.658z M140.061,46.939c-0.188-0.001-0.36-0.107-0.447-0.274
		c-0.13-0.242-0.04-0.543,0.202-0.674c0.004-0.002,0.008-0.004,0.012-0.006c1.198-0.629,2.426-1.249,3.654-1.827
		c0.251-0.124,0.556-0.02,0.679,0.232c0,0,0,0.001,0.001,0.001c0.116,0.255,0.008,0.557-0.244,0.68
		c-1.218,0.579-2.436,1.188-3.624,1.807C140.223,46.919,140.142,46.94,140.061,46.939z M228.639,43.38
		c-0.061,0.01-0.122,0.01-0.183,0c-1.249-0.497-2.517-1.015-3.786-1.431c-0.271-0.069-0.436-0.346-0.365-0.618
		c0.069-0.271,0.346-0.435,0.617-0.365c0.029,0.007,0.057,0.017,0.084,0.029c1.278,0.457,2.567,0.944,3.826,1.441
		c0.279,0.053,0.464,0.324,0.41,0.604c-0.053,0.28-0.323,0.464-0.604,0.411V43.38z M147.409,43.448
		c-0.205-0.001-0.389-0.125-0.467-0.314c-0.107-0.258,0.01-0.555,0.264-0.67c1.259-0.528,2.538-1.015,3.796-1.513
		c0.264-0.098,0.557,0.036,0.655,0.299c0.098,0.264-0.036,0.557-0.299,0.655l0,0c-1.249,0.467-2.507,1.015-3.755,1.502
		c-0.062,0.026-0.126,0.043-0.193,0.051V43.448z M220.986,40.629h-0.152c-1.259-0.406-2.548-0.802-3.878-1.177
		c-0.28-0.079-0.444-0.37-0.365-0.65s0.369-0.444,0.649-0.365c1.34,0.396,2.639,0.792,3.908,1.198
		c0.28,0.045,0.471,0.308,0.426,0.588c-0.045,0.281-0.309,0.471-0.588,0.426V40.629z M155.021,40.585
		c-0.22,0.003-0.417-0.137-0.487-0.345c-0.082-0.269,0.061-0.554,0.325-0.649c1.299-0.426,2.608-0.822,3.908-1.198
		c0.28-0.076,0.569,0.09,0.645,0.37c0.076,0.281-0.09,0.569-0.371,0.645c-1.279,0.366-2.578,0.762-3.867,1.178
		c-0.05,0.013-0.102,0.017-0.152,0.01V40.585z M213.15,38.376c-0.044,0.01-0.089,0.01-0.133,0c-1.278-0.325-2.588-0.64-3.938-0.944
		c-0.28-0.062-0.457-0.339-0.396-0.619c0.063-0.28,0.34-0.458,0.619-0.396c1.36,0.305,2.68,0.629,3.969,1.015
		c0.268,0.064,0.432,0.333,0.368,0.6c-0.001,0.003-0.001,0.006-0.003,0.009C213.563,38.246,213.367,38.38,213.15,38.376z
		 M162.807,38.363c-0.235,0.002-0.441-0.158-0.498-0.386c-0.063-0.272,0.104-0.544,0.375-0.609c1.32-0.325,2.669-0.619,3.989-0.883
		c0.28-0.056,0.553,0.125,0.609,0.406s-0.125,0.553-0.406,0.609l0,0c-1.32,0.264-2.649,0.558-3.949,0.873L162.807,38.363z
		 M197.205,35.199h-0.071c-1.319-0.193-2.659-0.366-4.06-0.538c-0.28-0.034-0.48-0.288-0.447-0.568
		c0.034-0.28,0.289-0.48,0.569-0.447c1.37,0.163,2.72,0.345,4.06,0.538c0.28,0.02,0.492,0.263,0.472,0.543s-0.263,0.492-0.543,0.472
		H197.205z M170.774,36.769c-0.28,0.022-0.526-0.187-0.548-0.467s0.187-0.526,0.467-0.548c1.33-0.213,2.689-0.406,4.06-0.568
		c0.281-0.034,0.535,0.167,0.569,0.447c0.033,0.28-0.167,0.535-0.447,0.568c-1.35,0.162-2.7,0.355-4.06,0.568H170.774z
		 M199.194,35.917L199.194,35.917c-1.359-0.122-2.721-0.224-4.061-0.294c-0.279-0.016-0.492-0.256-0.477-0.536c0,0,0-0.001,0-0.002
		c0.011-0.274,0.242-0.488,0.517-0.478c0.003,0,0.007,0,0.011,0c1.34,0.081,2.711,0.183,4.061,0.305c0.28,0-9.521-1.444-9.521-1.164
		s9.802,2.179,9.521,2.179L199.194,35.917z M178.895,35.794c-0.28,0-0.508-0.227-0.508-0.507s0.228-0.507,0.508-0.507
		c1.37-0.112,2.74-0.193,4.06-0.264c0.274-0.017,0.51,0.192,0.527,0.466c0,0.007,0,0.014,0,0.021
		c0.017,0.274-0.191,0.51-0.465,0.527c-0.004,0-0.008,0-0.011,0c-1.34,0.061-2.69,0.152-4.06,0.264H178.895z M191.074,35.45
		L191.074,35.45c-1.37,0-2.71,0-4.06,0l0,0c-0.28,0-0.507-0.228-0.507-0.508s0.227-0.507,0.507-0.507c1.34,0,2.71,0,4.06,0
		c0.275,0,0.498,0.222,0.498,0.497c0,0.007,0,0.014,0,0.021c-0.005,0.276-0.231,0.498-0.508,0.498H191.074z"/>
	<path fill="#D1D3D4" d="M186.1,231.054h-0.152l-1.929-0.599c-0.28-0.079-0.444-0.369-0.365-0.65
		c0.078-0.279,0.369-0.443,0.649-0.365l1.959,0.609c0.28,0.045,0.471,0.309,0.426,0.588c-0.045,0.281-0.309,0.472-0.589,0.427
		V231.054z"/>
	<path fill="#FFFFFF" d="M259.84,89.4c0,0,2.71-9.713,2.953-11.083c0.244-1.37-0.496-6.841,1.016-7.673
		c1.512-0.833,2.457,4.121,2.457,7.673c0,0,6.15-13.418,7.876-11.449c1.726,1.969,1.969,6.151,1.228,8.363
		c-0.74,2.213-10.454,21.163-10.454,21.163L259.84,89.4z"/>
	<path fill="#231F20" d="M264.915,96.901c-0.161,0.003-0.313-0.073-0.406-0.203l-5.166-6.993c-0.09-0.126-0.12-0.286-0.081-0.437
		c0-0.102,2.699-9.703,2.943-11.033c0.047-0.676,0.047-1.354,0-2.03c0-3.045,0-5.359,1.197-6.029c0.353-0.213,0.795-0.213,1.147,0
		c1.177,0.69,1.756,3.674,1.969,6.09c1.675-3.451,5.004-9.815,6.892-10.15c0.364-0.063,0.734,0.077,0.965,0.365
		c1.918,2.192,2.029,6.638,1.33,8.861c-0.701,2.223-9.979,20.462-10.363,21.234c-0.078,0.161-0.238,0.266-0.416,0.274
		L264.915,96.901z M260.307,89.299l4.527,6.09c1.775-3.502,9.297-18.453,9.937-20.361c0.731-2.203,0.396-6.09-1.137-7.866
		c-0.883-0.173-4.171,5.075-7.024,11.327c-0.096,0.219-0.334,0.339-0.568,0.284c-0.236-0.048-0.405-0.256-0.405-0.497
		c0-3.187-0.771-6.77-1.563-7.237c-0.042-0.03-0.1-0.03-0.142,0c-0.771,0.437-0.711,3.481-0.681,5.075
		c0.059,0.729,0.059,1.463,0,2.192c-0.232,1.38-2.477,9.46-2.902,10.993H260.307z"/>
	<path fill="#231F20" d="M245.275,220.863c0,0-6.324,14.434-4.355,15.418c1.97,0.984,22.006,7.541,21.833,6.231
		s-11.104-8.942-11.104-8.942l5.025-12.707H245.275z"/>
	<path fill="#231F20" d="M262.357,243.152c-3.848,0-21.488-6.334-21.66-6.415c-0.894-0.456-1.553-3.136,4.11-16.077
		c0.079-0.188,0.264-0.309,0.468-0.305h11.398c0.167,0,0.323,0.084,0.416,0.223c0.102,0.135,0.121,0.314,0.051,0.467l-4.873,12.344
		c3.492,2.445,10.811,7.713,10.993,9.053c0.032,0.23-0.071,0.459-0.265,0.589C262.799,243.129,262.578,243.172,262.357,243.152z
		 M245.63,221.371c-3.126,7.195-5.156,13.783-4.446,14.463c2.092,1.016,17.459,5.958,20.788,6.334
		c-1.269-1.371-6.091-5.014-10.597-8.182c-0.194-0.131-0.268-0.383-0.173-0.598l4.74-12.018H245.63z"/>
	<path fill="#231F20" d="M213.039,249.486c0.242,0.74,0.242,12.789,0,15.742c-0.244,2.953,10.088,19.722,13.307,16.494
		c3.217-3.229-2.467-17.479-2.467-17.479l1.015-16.24L213.039,249.486z"/>
	<path fill="#231F20" d="M225.33,282.625c-0.437-0.01-0.865-0.113-1.259-0.304c-4.385-2.03-11.784-14.383-11.561-17.134
		c0.253-3.045,0.224-14.758,0-15.549c-0.034-0.146-0.008-0.3,0.071-0.427c0.08-0.124,0.209-0.209,0.355-0.233l11.865-1.472
		c0.148-0.021,0.298,0.028,0.405,0.132c0.112,0.104,0.173,0.253,0.163,0.406l-1.016,16.117c0.762,1.93,5.593,14.646,2.314,17.916
		C226.318,282.438,225.833,282.637,225.33,282.625z M213.576,249.922c0.203,2.69,0.152,12.881-0.051,15.357
		c-0.183,2.142,6.831,14.21,10.973,16.118c0.862,0.396,1.238,0.173,1.451,0c2.426-2.426-1.016-13.043-2.588-16.92
		c-0.021-0.073-0.021-0.15,0-0.224l1.015-15.631L213.576,249.922z"/>
	<path fill="#3BAFC9" d="M198.707,100.108c-9.267-2.639-25.588,2.629-35.525,11.825c-7.897,7.338,7.105,42.143,14.596,59.885
		l45.188-13.49C222.965,158.328,207.963,102.757,198.707,100.108z"/>
	<path fill="#231F20" d="M222.985,158.318c0,0,45.989,13.967,46.883,23.944s-12.495,45.481-12.495,45.481l-15.549-2.68
		c0,0,13.336-37.22,7.023-40.031c-6.313-2.812-31.901-7.674-31.901-7.674s2.639,21.184,7.298,35.475
		c4.658,14.291,2.893,39.809,2.893,39.809l-16.24,2.67c0,0-0.609-32.826-7.45-47.817c-6.841-14.991-25.649-35.718-25.649-35.718
		L222.985,158.318z"/>
	<path fill="#231F20" d="M210.896,255.85c-0.117,0-0.232-0.039-0.324-0.111c-0.117-0.094-0.185-0.236-0.184-0.386
		c0-0.325-0.68-32.896-7.409-47.614c-6.729-14.717-25.375-35.383-25.558-35.596c-0.122-0.126-0.165-0.31-0.111-0.477
		c0.045-0.165,0.171-0.295,0.335-0.346l45.198-13.488c0.092-0.031,0.191-0.031,0.283,0c1.898,0.568,46.285,14.209,47.248,24.359
		c0.945,10.008-11.977,44.264-12.535,45.675c-0.084,0.228-0.32,0.36-0.558,0.315l-15.55-2.701c-0.148-0.023-0.279-0.113-0.355-0.243
		c-0.061-0.136-0.061-0.29,0-0.427c9.633-26.917,9.633-38.315,7.298-39.33c-5.612-2.498-26.989-6.669-31.1-7.451
		c0.497,3.766,3.046,22.047,7.177,34.693c4.639,14.21,2.933,39.747,2.923,40.001c-0.02,0.234-0.194,0.427-0.427,0.467l-16.24,2.67
		L210.896,255.85z M178.701,172.062c3.126,3.522,19.052,21.792,25.203,35.251c6.313,13.814,7.358,42.935,7.48,47.441l15.226-2.508
		c0.203-3.309,1.369-26.156-2.893-39.219c-4.619-14.211-7.289-35.363-7.318-35.525c-0.02-0.163,0.041-0.326,0.162-0.437
		c0.116-0.11,0.279-0.155,0.437-0.122c1.015,0.193,25.72,4.842,32.013,7.653c2.924,1.3,2.639,8.395-0.863,21.671
		c-2.161,8.211-4.932,16.24-5.684,18.432l14.535,2.527c1.461-3.907,13.195-35.656,12.322-44.873
		c-0.254-2.71-4.537-7.562-23.477-15.296c-10.75-4.385-21.529-7.744-22.898-8.12L178.701,172.062z"/>
	<path fill="#FFFFFF" d="M162.309,77.951c0.587-0.111,1.195-0.01,1.715,0.285c-1.116-2.457,1.157-4.354,2.629-5.918
		c1.643-1.804,3.997-2.792,6.435-2.7c2.875,0.253,5.64,1.227,8.039,2.832c2.03,1.167,4.202,2.538,6.425,1.928
		c0.655-0.269,1.335-0.472,2.03-0.609c0.701-0.061,1.533,0.366,1.543,1.076c-0.025,0.38-0.183,0.74-0.447,1.015
		c-0.707,0.88-1.615,1.577-2.649,2.03c0.507,0.822,1.665,0.842,2.629,0.771l3.045-0.223c0.568,0,1.289,0,1.502,0.528
		c0.081,0.302,0.049,0.624-0.091,0.903c-0.771,2.059-2.156,3.831-3.968,5.075c1.488,0.333,3.046,0.124,4.395-0.589
		c0.335,4.365-2.893,8.384-6.821,10.353c-3.95,1.799-8.269,2.644-12.606,2.466c-3.228-0.081-7.329,0.701-10.15-1.472
		c-3.476-2.732-5.862-6.616-6.729-10.952c-0.447-1.657-0.293-3.419,0.436-4.974C160.231,78.805,161.2,78.134,162.309,77.951z"/>
	<path fill="#231F20" d="M171.981,97.753c-2.223,0-4.496-0.244-6.293-1.644c-3.573-2.813-6.027-6.808-6.922-11.267
		c-0.485-1.774-0.308-3.665,0.498-5.318c0.643-1.079,1.726-1.82,2.964-2.03l0,0c0.336-0.049,0.678-0.049,1.015,0
		c-0.315-2.03,1.309-3.694,2.527-4.953l0.497-0.508c1.737-1.911,4.229-2.959,6.811-2.862c2.959,0.266,5.805,1.264,8.283,2.903
		l0.152,0.081c1.837,1.096,3.928,2.324,5.876,1.796c0.244-0.071,0.467-0.152,0.701-0.244c0.448-0.199,0.923-0.33,1.411-0.386
		c0.579-0.047,1.153,0.139,1.594,0.518c0.297,0.256,0.477,0.623,0.497,1.015c-0.017,0.503-0.215,0.982-0.558,1.35
		c-0.599,0.721-1.325,1.326-2.142,1.787c0.543,0.178,1.12,0.226,1.685,0.142l3.045-0.224c1.015-0.081,1.746,0.203,2.03,0.853
		c0.129,0.416,0.097,0.866-0.091,1.259c-0.652,1.769-1.742,3.344-3.167,4.578c1.003,0.018,1.994-0.216,2.883-0.68
		c0.249-0.13,0.555-0.034,0.685,0.214c0.031,0.06,0.05,0.125,0.056,0.192c0.376,4.852-3.289,8.942-7.105,10.85
		c-4.021,1.842-8.42,2.712-12.839,2.538c-0.71,0-1.462,0-2.233,0C173.068,97.713,172.621,97.753,171.981,97.753z M162.39,78.469
		c-0.942,0.169-1.763,0.745-2.243,1.573c-0.68,1.446-0.816,3.089-0.386,4.628c0.846,4.218,3.167,7.997,6.547,10.657
		c2.03,1.573,4.821,1.482,7.521,1.391c0.802,0,1.573,0,2.304,0c4.253,0.182,8.488-0.653,12.353-2.436
		c3.299-1.654,6.496-5.075,6.557-9.135c-1.292,0.504-2.706,0.614-4.06,0.314c-0.196-0.05-0.346-0.208-0.386-0.406
		c-0.029-0.198,0.053-0.397,0.213-0.518c1.731-1.191,3.056-2.884,3.796-4.852c0.075-0.169,0.107-0.354,0.091-0.538
		c-0.071-0.172-0.447-0.253-1.015-0.213l-3.045,0.223c-1.096,0.081-2.446,0-3.045-1.015c-0.072-0.126-0.091-0.276-0.051-0.416
		c0.049-0.139,0.151-0.252,0.284-0.314c0.957-0.407,1.8-1.041,2.457-1.848c0.183-0.179,0.301-0.415,0.335-0.67
		c-0.004-0.126-0.064-0.245-0.163-0.325c-0.237-0.184-0.533-0.274-0.833-0.253c-0.388,0.055-0.766,0.161-1.126,0.314
		c-0.259,0.105-0.523,0.196-0.792,0.274c-2.375,0.65-4.659-0.7-6.669-1.898l-0.152-0.081c-2.33-1.553-5.008-2.501-7.795-2.761
		c-2.289-0.085-4.498,0.843-6.039,2.537l-0.508,0.528c-1.421,1.452-2.882,2.954-2.03,4.832c0.089,0.202,0.04,0.438-0.122,0.589
		c-0.16,0.151-0.401,0.176-0.589,0.061c-0.425-0.229-0.915-0.308-1.391-0.223L162.39,78.469z"/>
	<path fill="#FFFFFF" d="M185.745,101.235l3.522,8.029c0,0-1.492,5.907-7.359,5.735c-5.867-0.173-7.714-4.233-7.724-4.243
		l-2.446-8.922l-1.512-5.481c-0.236-0.537-0.393-1.104-0.467-1.685c0.142-1.33,1.624-2.284,1.868-3.674
		c0.483-2.782-0.116-5.644-1.675-7.998c2.7,1.522,5.745,3.045,8.759,2.324c-0.733-0.542-1.413-1.155-2.03-1.827l6.323,1.157
		c0.816,0.129,1.641,0.19,2.466,0.183c0.934,0,0.477-0.487,1.32,0.487c2.111,2.436,3.096,6.942,3.268,10.069
		C190.272,99.875,185.745,101.235,185.745,101.235z"/>
	<path fill="#231F20" d="M182.111,115.526h-0.264c-6.283-0.183-8.181-4.568-8.191-4.608l-3.958-14.413
		c-0.043-0.147-0.094-0.293-0.152-0.436c-0.216-0.45-0.331-0.942-0.335-1.441c0.149-0.774,0.499-1.495,1.015-2.091
		c0.405-0.467,0.7-1.018,0.863-1.614c0.465-2.653-0.101-5.384-1.583-7.633c-0.148-0.18-0.148-0.439,0-0.619
		c0.158-0.173,0.414-0.215,0.619-0.102c2.223,1.269,4.76,2.547,7.288,2.426c-0.414-0.353-0.803-0.732-1.167-1.137
		c-0.154-0.158-0.183-0.399-0.071-0.589c0.104-0.188,0.316-0.29,0.528-0.254l6.334,1.157c0.766,0.116,1.54,0.174,2.314,0.172
		c0.158,0.015,0.318-0.006,0.467-0.061c0.518-0.183,0.71,0,1.238,0.649c2.284,2.639,3.279,7.257,3.451,10.444
		c0.203,3.847-2.893,5.603-4.172,6.151l3.319,7.552c0.03,0.109,0.03,0.225,0,0.335C189.704,109.477,188.1,115.526,182.111,115.526z
		 M174.631,110.634c0,0,1.786,3.725,7.247,3.877h0.233c4.74,0,6.303-4.273,6.577-5.187l-3.451-7.866
		c-0.061-0.132-0.061-0.284,0-0.417c0.063-0.13,0.177-0.229,0.315-0.274c0.172-0.051,4.192-1.33,3.979-5.339
		c-0.172-3.258-1.218-7.542-3.146-9.754c-0.162-0.192-0.253-0.314-0.325-0.385c-0.203,0.046-0.411,0.07-0.619,0.071
		c-0.853,0.006-1.705-0.059-2.547-0.193l-4.689-0.853l0.771,0.619c0.161,0.114,0.237,0.315,0.193,0.507
		c-0.04,0.193-0.186,0.346-0.376,0.396c-2.639,0.609-5.237-0.335-7.582-1.542c0.975,2.129,1.279,4.504,0.873,6.811
		c-0.181,0.745-0.528,1.438-1.015,2.03c-0.406,0.456-0.689,1.008-0.822,1.604c0.032,0.35,0.121,0.693,0.264,1.015
		c0.071,0.176,0.132,0.355,0.183,0.538l3.958,14.393L174.631,110.634z"/>
	<path fill="#231F20" d="M187.552,105.478c-1.872,0.792-4.014,0.609-5.725-0.487c-2.964-1.847-3.187-3.877-3.187-3.877
		c2.261,0.962,4.807,1.014,7.105,0.142L187.552,105.478z"/>
	<path fill="#231F20" d="M185.146,106.473c-1.266,0.006-2.508-0.346-3.583-1.015c-3.136-1.959-3.42-4.162-3.431-4.263
		c-0.026-0.279,0.178-0.527,0.458-0.553c0.09-0.008,0.181,0.007,0.263,0.046c2.12,0.884,4.496,0.932,6.648,0.132
		c0.255-0.106,0.548,0.011,0.66,0.264l1.857,4.222c0.109,0.25,0.001,0.541-0.244,0.66
		C186.943,106.314,186.048,106.487,185.146,106.473z M179.482,101.956c0.627,1.085,1.531,1.985,2.619,2.609
		c1.42,0.911,3.173,1.142,4.781,0.629l-1.452-3.289C183.501,102.537,181.422,102.555,179.482,101.956z"/>
	<path fill="#FFFFFF" d="M181.482,88.954c0,0,3.979,3.613,3.481,4.547c-0.497,0.934-2.558,0.903-2.558,0.903"/>
	<path fill="#231F20" d="M182.426,94.912L182.426,94.912c-0.274,0-0.497-0.223-0.497-0.498c0-0.003,0-0.007,0-0.01
		c0-0.28,0.227-0.508,0.507-0.508l0,0c0.71,0,1.847-0.203,2.091-0.64c0-0.426-1.563-2.273-3.38-3.928
		c-0.196-0.2-0.193-0.521,0.007-0.718c0.184-0.18,0.473-0.194,0.673-0.033c1.959,1.776,4.162,4.06,3.593,5.156
		C184.852,94.83,182.771,94.912,182.426,94.912z"/>
	
		<ellipse transform="matrix(-0.1577 -0.9875 0.9875 -0.1577 118.5083 279.9105)" fill="#231F20" cx="178.638" cy="89.411" rx="1.045" ry="0.741"/>
	
		<ellipse transform="matrix(-0.4416 -0.8972 0.8972 -0.4416 189.6154 293.7731)" fill="#231F20" cx="186.226" cy="87.881" rx="1.045" ry="0.741"/>
	<path fill="#231F20" d="M182.436,98.342c-1.148-0.025-2.273-0.328-3.278-0.883c-0.249-0.126-0.349-0.43-0.223-0.68
		c0.119-0.248,0.417-0.351,0.664-0.231c0.005,0.002,0.011,0.005,0.016,0.008c4.588,2.365,6.831-1.472,6.922-1.634
		c0.151-0.236,0.464-0.306,0.701-0.155c0.218,0.139,0.297,0.42,0.183,0.652C186.348,97.162,184.48,98.257,182.436,98.342z"/>
	<path fill="#FFFFFF" d="M172.032,93.562c-0.798-0.545-1.781-0.75-2.73-0.568c-0.956,0.203-1.705,0.944-1.918,1.898
		c-0.086,1.097,0.406,2.159,1.299,2.802c1.282,1.06,2.952,1.528,4.598,1.289"/>
	<path fill="#231F20" d="M172.418,99.55c-1.481-0.004-2.916-0.521-4.06-1.462c-1.039-0.757-1.596-2.01-1.461-3.289
		c0.258-1.149,1.155-2.046,2.304-2.304c1.082-0.213,2.205,0.018,3.116,0.639c0.236,0.155,0.304,0.472,0.152,0.71
		c-0.159,0.233-0.475,0.296-0.71,0.142c-0.678-0.477-1.521-0.656-2.334-0.497c-0.758,0.148-1.359,0.729-1.533,1.482
		c-0.043,0.918,0.381,1.796,1.126,2.334c1.167,0.969,2.692,1.394,4.192,1.167c0.278-0.037,0.537,0.15,0.588,0.426
		c0.037,0.276-0.151,0.532-0.426,0.579C173.057,99.528,172.737,99.552,172.418,99.55z"/>
	<path fill="#231F20" d="M185.228,114.329l-1.634,3.431l2.273,0.66c0,0,12.282,33.891,38.571,27.699l6.83-8.901l-9.246-3.613
		c0,0-4.527,3.816-13.195,1.614c-10.211-2.599-21.315-17.103-21.315-17.103l0.477-2.872L185.228,114.329z"/>
	<path fill="#231F20" d="M218.225,147.377c-21.01,0-31.617-25.74-32.703-28.542l-2.03-0.588c-0.145-0.042-0.264-0.146-0.325-0.284
		c-0.062-0.136-0.062-0.291,0-0.426l1.634-3.421c0.102-0.234,0.368-0.349,0.609-0.264l2.812,0.914
		c0.236,0.081,0.378,0.322,0.335,0.568l-0.437,2.639c1.289,1.634,11.581,14.383,20.909,16.758
		c8.252,2.101,12.678-1.482,12.718-1.512c0.142-0.119,0.334-0.153,0.507-0.091l9.258,3.613c0.145,0.06,0.253,0.184,0.294,0.335
		c0.046,0.153,0.017,0.319-0.081,0.447l-6.842,8.912c-0.072,0.09-0.172,0.154-0.283,0.183
		C222.511,147.113,220.372,147.368,218.225,147.377z M184.304,117.475l1.705,0.507c0.157,0.037,0.283,0.152,0.335,0.305
		c0.122,0.335,12.383,33.241,37.818,27.405l6.324-8.231l-8.363-3.269c-1.076,0.782-5.604,3.522-13.378,1.543
		c-10.262-2.619-21.132-16.697-21.589-17.255c-0.088-0.112-0.125-0.255-0.102-0.396l0.406-2.436l-1.969-0.639L184.304,117.475z"/>
	<path fill="#231F20" d="M277.096,54.799c0,0-0.559-0.396-1.391-0.914c0,0-0.935,1.847-0.955,1.776
		C274.73,55.59,277.096,54.799,277.096,54.799z"/>
	<path fill="#231F20" d="M274.811,56.179h-0.131c-0.211-0.02-0.386-0.17-0.438-0.375c-0.061-0.233-0.091-0.366,0.143-0.528
		c0.234-0.163,0.527-1.015,0.853-1.604c0.062-0.13,0.177-0.227,0.315-0.264c0.134-0.042,0.279-0.02,0.396,0.061
		c0.853,0.518,1.421,0.923,1.421,0.923c0.229,0.15,0.294,0.459,0.144,0.688c-0.064,0.099-0.162,0.171-0.275,0.205
		c-0.884,0.304-1.868,0.649-2.173,0.781C275.004,56.144,274.908,56.185,274.811,56.179z M275.887,54.616v0.061h0.082L275.887,54.616
		z"/>
	<polygon fill="#231F20" points="268.427,86.934 267.077,86.061 267.646,84.629 	"/>
	<path fill="#231F20" d="M268.438,87.441c-0.102,0.003-0.201-0.025-0.285-0.082l-1.35-0.873c-0.203-0.13-0.285-0.386-0.193-0.609
		l0.569-1.431c0.086-0.193,0.275-0.319,0.487-0.325c0.211,0.009,0.396,0.146,0.467,0.345l0.781,2.304
		c0.07,0.207,0.002,0.436-0.172,0.568C268.654,87.406,268.547,87.442,268.438,87.441z"/>
	<path fill="#231F20" d="M269.046,86.954l12.778-4.182c0.543-0.178,0.871-0.727,0.771-1.289l-5.217-26.177
		c-0.074-0.442-0.494-0.74-0.936-0.665c-0.073,0.012-0.145,0.035-0.211,0.066l-12.668,5.014c-0.507,0.224-0.799,0.762-0.71,1.309
		l5.075,25.284c0.068,0.449,0.488,0.757,0.938,0.688C268.928,86.993,268.988,86.977,269.046,86.954z"/>
	<path fill="#231F20" d="M268.762,87.512c-0.236,0.001-0.467-0.062-0.67-0.183c-0.334-0.199-0.566-0.532-0.639-0.914l-5.076-25.284
		c-0.143-0.787,0.279-1.567,1.016-1.878l12.667-5.075c0.381-0.157,0.812-0.139,1.178,0.051c0.345,0.196,0.586,0.534,0.659,0.923
		l5.217,26.177c0.154,0.814-0.318,1.617-1.105,1.877l-12.789,4.182l0,0C269.075,87.458,268.92,87.5,268.762,87.512z M269.046,86.954
		L269.046,86.954z M276.588,55.144h-0.173l-12.667,5.075c-0.278,0.131-0.438,0.427-0.396,0.731l5.075,25.284
		c0.022,0.178,0.185,0.304,0.362,0.282c0.025-0.003,0.051-0.009,0.074-0.019l12.789-4.182c0.291-0.107,0.469-0.403,0.426-0.71
		l-5.217-26.177c-0.01-0.098-0.066-0.185-0.152-0.234C276.672,55.169,276.631,55.152,276.588,55.144z"/>
	<path fill="#FFFFFF" d="M267.635,86.061l12.789-4.182c0.535-0.186,0.857-0.731,0.762-1.289l-5.207-26.177
		c-0.08-0.447-0.508-0.744-0.955-0.663c-0.07,0.013-0.138,0.034-0.202,0.064l-12.667,5.014c-0.509,0.222-0.799,0.764-0.701,1.31
		l5.076,25.284c0.07,0.448,0.491,0.754,0.939,0.684C267.525,86.096,267.582,86.081,267.635,86.061z"/>
	<path fill="#231F20" d="M267.352,86.619c-0.232,0-0.461-0.063-0.66-0.183c-0.337-0.198-0.573-0.53-0.65-0.914l-5.074-25.284
		c-0.145-0.787,0.278-1.567,1.015-1.878l12.667-5.024c0.37-0.172,0.798-0.172,1.168,0c0.35,0.193,0.596,0.532,0.67,0.924
		l5.207,26.177c0.153,0.815-0.319,1.618-1.107,1.878l-12.788,4.182l0,0C267.657,86.565,267.506,86.606,267.352,86.619z
		 M267.635,86.061L267.635,86.061z M275.177,54.25c-0.054-0.009-0.108-0.009-0.163,0l-12.666,5.024
		c-0.283,0.125-0.446,0.425-0.396,0.731l5.075,25.284c0.017,0.101,0.075,0.189,0.162,0.244c0.088,0.035,0.187,0.035,0.274,0
		l12.789-4.182c0.294-0.104,0.473-0.402,0.426-0.71l-5.197-26.096c-0.014-0.096-0.069-0.181-0.151-0.233
		C275.283,54.28,275.231,54.259,275.177,54.25z"/>
	<path fill="#E6E7E8" d="M272.721,82.508l2.486-0.812c0.328-0.114,0.525-0.449,0.467-0.792l-0.203-1.015
		c-0.044-0.283-0.309-0.476-0.591-0.432c-0.034,0.005-0.067,0.014-0.099,0.025l-2.498,0.833c-0.318,0.118-0.506,0.447-0.445,0.782
		l0.192,1.015c0.05,0.282,0.317,0.47,0.599,0.42C272.66,82.527,272.691,82.519,272.721,82.508z"/>
	<path fill="#E6E7E8" d="M267.615,58.524c-0.054,0-0.102-0.032-0.122-0.082c-0.021-0.064,0.009-0.134,0.071-0.162l3.705-1.462
		c0.066-0.028,0.145,0.004,0.172,0.071c0.028,0.067-0.004,0.145-0.07,0.172l-3.716,1.452L267.615,58.524z"/>
	<path fill="#E6E7E8" d="M266.6,58.92c-0.066,0-0.121-0.055-0.121-0.122s0.055-0.122,0.121-0.122l0.487-0.192
		c0.064-0.022,0.135,0.009,0.163,0.071c0.029,0.054,0.01,0.122-0.045,0.152c-0.008,0.005-0.018,0.008-0.026,0.011l-0.487,0.193
		L266.6,58.92z"/>
	<polygon fill="#E6E7E8" points="274.659,56.209 263.23,60.96 267.504,81.158 278.648,77.098 	"/>
	<path fill="#FFFFFF" d="M146.16,169.24c-0.122,0.609,0.122,6.638,0,7.744c-0.142,1.33,1.888,2.568,2.558,3.512
		c1.31,1.857,2.091,4.467,2.903,6.578c0.112,0.294,0.213,0.659,0,0.872c-0.107,0.095-0.243,0.151-0.386,0.163
		c-1.289,0.172-2.324-1.016-3.096-2.03l-1.979-2.629c0.497,0.69-0.65,5.593-0.802,6.628c-0.138,1.775-0.479,3.529-1.015,5.227
		c-1.015,2.559-7.562,2.223-8.303-0.131c-0.903-2.863-2.355-8.679-0.467-14.302c-0.122-2.304-1.482-15.378-1.482-15.378
		L146.16,169.24z"/>
	<path fill="#231F20" d="M140.293,197.549h-0.315c-1.756-0.071-3.969-0.701-4.466-2.264c-1.705-5.44-1.878-10.322-0.498-14.515
		c-0.152-2.518-1.451-15.134-1.472-15.226c-0.009-0.17,0.063-0.336,0.193-0.446c0.134-0.1,0.306-0.134,0.467-0.091l12.059,3.816
		c0.246,0.082,0.394,0.334,0.345,0.588c-0.051,0.264,0,2.03,0,3.502c0,1.857,0.061,3.604,0,4.202
		c-0.061,0.599,0.782,1.452,1.462,2.101c0.371,0.305,0.711,0.645,1.015,1.016c1.04,1.652,1.865,3.429,2.457,5.288
		c0.176,0.487,0.349,0.954,0.518,1.401c0.256,0.451,0.204,1.014-0.132,1.41c-0.181,0.177-0.418,0.284-0.67,0.305
		c-1.553,0.223-2.73-1.086-3.573-2.243l-1.015-1.329c-0.102,0.893-0.314,2.141-0.67,3.918c-0.091,0.507-0.172,0.902-0.213,1.126
		c0,0.386-0.102,0.771-0.152,1.177c-0.122,1.422-0.418,2.823-0.883,4.172C144.13,197.01,142.039,197.549,140.293,197.549z
		 M134.64,166.195c0.294,2.852,1.289,12.637,1.401,14.636c0.01,0.061,0.01,0.122,0,0.183c-1.32,3.949-1.157,8.79,0.477,13.986
		c0.264,0.833,1.746,1.482,3.522,1.554c1.594,0.051,3.39-0.365,3.827-1.452c0.43-1.271,0.707-2.59,0.822-3.928
		c0-0.406,0.101-0.802,0.162-1.197c0-0.224,0.112-0.65,0.213-1.178c0.253-1.238,0.903-4.537,0.66-5.074
		c-0.148-0.238-0.075-0.552,0.164-0.699c0.221-0.137,0.509-0.086,0.668,0.12l0,0l1.949,2.68c0.69,0.923,1.604,1.979,2.619,1.837
		h0.102c0,0,0-0.111-0.102-0.324c-0.183-0.447-0.355-0.924-0.528-1.422c-0.558-1.782-1.339-3.488-2.325-5.074
		c-0.263-0.33-0.555-0.637-0.873-0.914c-0.894-0.832-1.898-1.786-1.776-2.943c0.061-0.527,0-2.416,0-4.061c0-1.644,0-2.699,0-3.258
		L134.64,166.195z"/>
	<path fill="#3BAFC9" d="M170.317,106.614c-3.045,2.558-31.465,14.555-39.829,27.324c-4.253,6.506,2.457,43.076,2.457,43.076
		l15.133-2.943l0.213-32.236c1.756-2.192,21.417-13.144,21.417-13.144L170.317,106.614z"/>
	<path fill="#3BAFC9" d="M198.707,100.108c0,0,37.555,4.872,41.838,3.431s21.051-22.005,21.051-22.005l8.323,8.881
		c0,0-8.983,27.324-21.122,30.166c-12.14,2.842-46.253,0-46.253,0L198.707,100.108z"/>
	<path fill="#231F20" d="M148.292,142.322c-0.172-0.002-0.332-0.09-0.426-0.233c-0.15-0.23-0.086-0.538,0.144-0.688
		c0.006-0.004,0.012-0.008,0.019-0.012l24.979-15.793c0.229-0.15,0.538-0.086,0.688,0.144c0.004,0.006,0.008,0.013,0.012,0.019
		c0.151,0.236,0.083,0.549-0.152,0.701l-24.989,15.773C148.485,142.287,148.39,142.319,148.292,142.322z"/>
	<path fill="#231F20" d="M215.586,134.436c-0.221,0.003-0.416-0.137-0.487-0.345c-0.335-1.015-11.083-28.583-11.165-28.856
		c-0.12-0.253-0.012-0.556,0.24-0.676c0.254-0.121,0.557-0.013,0.677,0.24c0.011,0.023,0.021,0.046,0.027,0.07
		c0.446,1.137,10.87,27.882,11.216,28.897c0.094,0.264-0.045,0.554-0.31,0.648c-0.001,0-0.003,0.001-0.005,0.002
		C215.717,134.435,215.65,134.442,215.586,134.436z"/>
	<path fill="#D1D3D4" d="M235.551,71.323c-2.635,0.006-4.775-2.125-4.78-4.76c-0.006-2.635,2.126-4.775,4.761-4.78
		c2.635-0.006,4.774,2.125,4.78,4.76c0,0.006,0,0.013,0,0.02C240.306,69.189,238.178,71.317,235.551,71.323z M235.551,62.807
		c-2.074-0.005-3.76,1.671-3.766,3.745c-0.006,2.074,1.672,3.76,3.746,3.766c2.074,0.006,3.76-1.671,3.766-3.745
		c0-0.003,0-0.007,0-0.01C239.297,64.492,237.621,62.813,235.551,62.807z"/>
</g>
</svg>
