<svg width="806" height="596" viewBox="0 0 806 596" fill="none" xmlns="http://www.w3.org/2000/svg">
<path d="M367.44 462.141L334.032 481.437H243.888L210.48 462.141V296.253L243.888 276.957H334.032L367.44 296.253V462.141ZM250.8 311.517V446.877H327.12V311.517H250.8ZM478.275 420.957H518.595V462.141L485.187 481.437H403.683L370.275 462.141V296.253L403.683 276.957H485.187L518.595 296.253V337.437H478.275V311.517H410.595V446.877H478.275V420.957ZM675.499 462.141L642.091 481.437H551.947L518.539 462.141V296.253L551.947 276.957H642.091L675.499 296.253V462.141ZM558.859 311.517V446.877H635.179V311.517H558.859Z" fill="white"/>
<g filter="url(#filter0_d)">
<path fill-rule="evenodd" clip-rule="evenodd" d="M81.7021 282.107C80.1568 268.767 58.8036 184.452 75.5428 174.198C134.47 135.627 169.43 3.37119 268.745 171.954C429.447 170.305 325.28 334.378 216.904 403.202C109.822 471.254 -11.5613 422.012 81.7015 282.107L81.7021 282.107Z" fill="#3775BE" fill-opacity="0.99167" stroke="#3775BE" stroke-width="1.9801" stroke-linejoin="round"/>
<path fill-rule="evenodd" clip-rule="evenodd" d="M81.8115 271.37C164.805 304.913 263.398 193.517 259.603 154.809C268.73 163.546 270.376 201.771 270.376 201.771C256.868 284.83 115.151 354.589 89.1859 316.824C84.5261 305.382 81.9953 276.606 81.8115 271.369L81.8115 271.37Z" fill="white" stroke="white" stroke-width="0.990051"/>
<path fill-rule="evenodd" clip-rule="evenodd" d="M97.0076 157.34C111.064 156.991 194.182 134.93 199.748 119.763C207.345 107.966 204.78 106.579 199.862 108.463C194.457 120.309 182.852 133.346 97.008 157.34L97.0076 157.34Z" fill="url(#paint0_linear)"/>
</g>
<defs>
<filter id="filter0_d" x="46.3048" y="87.2854" width="307.36" height="349.862" filterUnits="userSpaceOnUse" color-interpolation-filters="sRGB">
<feFlood flood-opacity="0" result="BackgroundImageFix"/>
<feColorMatrix in="SourceAlpha" type="matrix" values="0 0 0 0 0 0 0 0 0 0 0 0 0 0 0 0 0 0 127 0"/>
<feOffset dy="1.268"/>
<feGaussianBlur stdDeviation="0.633998"/>
<feColorMatrix type="matrix" values="0 0 0 0 0 0 0 0 0 0 0 0 0 0 0 0 0 0 0.25 0"/>
<feBlend mode="normal" in2="BackgroundImageFix" result="effect1_dropShadow"/>
<feBlend mode="normal" in="SourceGraphic" in2="effect1_dropShadow" result="shape"/>
</filter>
<linearGradient id="paint0_linear" x1="101.359" y1="172.939" x2="213.607" y2="141.622" gradientUnits="userSpaceOnUse">
<stop offset="0.192708" stop-color="white" stop-opacity="0.175"/>
<stop offset="1" stop-color="white" stop-opacity="0.375"/>
</linearGradient>
</defs>
</svg>
